# xmcd
#
# Track frame offsets:
#	150
#	20026
#	43387
#	65211
#	89459
#	108216
#	127473
#	147583
#	165908
#	185774
#	209873
#	233874
#
# Disc length: 3625 seconds
#
# Revision: 1882677550
# Processed by: cddbd v1.5.2PL0 Copyright (c) Steve Scherf et al.
# Submitted via: EZCDAudioConverter 8.0.2.1
#
DISCID=c50e270c
DTITLE=Thành An - Đưa Em Vào Hạ
DYEAR=2010
DGENRE=Contemporary Blues
TTITLE0=Thành An - 24 giờ phép
TTITLE1=Thành An - Đưa Em Vào Hạ
TTITLE2=Thành An - Nụ cười biệt ly
TTITLE3=Thành An - Trong tầm mắt đời
TTITLE4=Thành An - Nỗi buồn gác trọ
TTITLE5=Thành An - Thói đời
TTITLE6=Thành An - Thành phố buồn
TTITLE7=Thành An - Mưa rừng
TTITLE8=Thành An - Nhớ nhau hoài
TTITLE9=Thành An - Đoạn cuối tình yêu
TTITLE10=Thành An - Tình cha
TTITLE11=Thành An, Duy Vũ, Duy Trường - Liên khúc 'Nụ cười biệt ly - Nhớ người 
TTITLE11=yêu - Mất nhau rồi'
EXTD=
EXTT0=
EXTT1=
EXTT2=
EXTT3=
EXTT4=
EXTT5=
EXTT6=
EXTT7=
EXTT8=
EXTT9=
EXTT10=
EXTT11=
PLAYORDER=
